<svg width="20" height="20" viewBox="0 0 20 20" fill="none" xmlns="http://www.w3.org/2000/svg">
<g id="Bag - Bold 24px">
<g id="Bag 2">
<path id="Bag 2_2" fill-rule="evenodd" clip-rule="evenodd" d="M13.8751 5.39199H14.0548C16.4162 5.39199 18.3327 7.26699 18.3327 9.56699V14.167C18.3327 16.467 16.4162 18.3337 14.0548 18.3337H5.94391C3.58251 18.3337 1.66602 16.467 1.66602 14.167V9.56699C1.66602 7.26699 3.58251 5.39199 5.94391 5.39199H6.12358C6.14069 4.39199 6.54281 3.45866 7.27005 2.75866C8.00585 2.05033 8.94699 1.69199 10.0079 1.66699C12.1297 1.66699 13.8495 3.33366 13.8751 5.39199ZM8.16842 3.65033C7.6893 4.11699 7.42407 4.73366 7.40696 5.39199H12.5918C12.5661 4.02533 11.4196 2.91699 10.0079 2.91699C9.34912 2.91699 8.66466 3.17533 8.16842 3.65033ZM13.2505 8.60032C13.6099 8.60032 13.8922 8.31699 13.8922 7.97532V7.00866C13.8922 6.66699 13.6099 6.38366 13.2505 6.38366C12.8997 6.38366 12.6088 6.66699 12.6088 7.00866V7.97532C12.6088 8.31699 12.8997 8.60032 13.2505 8.60032ZM7.31281 7.97532C7.31281 8.31699 7.03047 8.60032 6.67113 8.60032C6.32034 8.60032 6.02944 8.31699 6.02944 7.97532V7.00866C6.02944 6.66699 6.32034 6.38366 6.67113 6.38366C7.03047 6.38366 7.31281 6.66699 7.31281 7.00866V7.97532Z" fill="white"/>
</g>
</g>
</svg>
