<svg width="20" height="20" viewBox="0 0 20 20" fill="none" xmlns="http://www.w3.org/2000/svg">
<g clip-path="url(#clip0_84_187)">
<path d="M0.00889133 14.3335C-0.0180618 14.4865 0.016821 14.644 0.105962 14.7713C0.195063 14.8986 0.331157 14.9853 0.484204 15.0122L3.08487 15.4708L1.44663 6.17969L0.00889133 14.3335Z" fill="#5142FC"/>
<path d="M3.13344 0.00943568C2.98004 -0.0184159 2.82176 0.0159591 2.69375 0.105022C2.56578 0.194123 2.47855 0.330569 2.45148 0.484162L1.83008 4.00838L13.6532 1.92362L3.13344 0.00943568Z" fill="#5142FC"/>
<path d="M19.991 16.8702L17.549 3.02135C17.4928 2.70267 17.189 2.49002 16.8702 2.54607L3.02141 4.98799C2.70274 5.04416 2.48993 5.34807 2.5461 5.66674L4.98801 19.5156C5.015 19.6687 5.10168 19.8047 5.22899 19.8938C5.32817 19.9633 5.44563 19.9998 5.56508 19.9998C5.59895 19.9998 5.63301 19.9969 5.6668 19.9909L19.5156 17.549C19.6687 17.522 19.8047 17.4353 19.8939 17.3081C19.983 17.1808 20.0179 17.0233 19.991 16.8702ZM5.66821 9.87607C5.61203 9.5574 5.82485 9.2535 6.14352 9.19732L15.3761 7.56935C15.6951 7.51318 15.9987 7.72596 16.0549 8.04463C16.1111 8.3633 15.8983 8.66721 15.5796 8.72338L6.34699 10.3514C6.31258 10.3574 6.27832 10.3604 6.24457 10.3604C5.96555 10.3604 5.71832 10.1604 5.66821 9.87607V9.87607ZM13.316 13.8824L7.16098 14.9677C7.12656 14.9737 7.09231 14.9767 7.05856 14.9767C6.77953 14.9767 6.53231 14.7767 6.48219 14.4924C6.42602 14.1737 6.63883 13.8698 6.9575 13.8136L13.1125 12.7283C13.4314 12.6721 13.7351 12.8849 13.7913 13.2036C13.8475 13.5222 13.6347 13.8262 13.316 13.8824V13.8824ZM15.9865 11.0315L6.75395 12.6595C6.71953 12.6656 6.68528 12.6685 6.65153 12.6685C6.3725 12.6685 6.12528 12.4685 6.07516 12.1842C6.01899 11.8655 6.2318 11.5616 6.55047 11.5054L15.7831 9.87748C16.102 9.82131 16.4056 10.0341 16.4619 10.3528C16.518 10.6715 16.3052 10.9754 15.9865 11.0315V11.0315Z" fill="#5142FC"/>
</g>
<defs>
<clipPath id="clip0_84_187">
<rect width="20" height="20" fill="white"/>
</clipPath>
</defs>
</svg>
