<svg width="28" height="28" viewBox="0 0 28 28" fill="none" xmlns="http://www.w3.org/2000/svg">
<g clip-path="url(#clip0_84_183)">
<path d="M15.5008 18.2083L16.7709 16.0084C19.6046 11.1003 19.24 6.93707 18.9635 5.41073C18.9342 5.2452 18.8332 5.10218 18.6889 5.0174C18.5438 4.93285 18.3697 4.91635 18.2107 4.97168C16.7374 5.48472 12.9072 7.22762 10.0709 12.1402L8.80044 14.3406L8.23613 14.3797C7.14798 14.456 6.16809 15.0681 5.62233 16.0134L4.10637 18.6391C4.01659 18.7946 4.0194 18.988 4.11371 19.1413C4.2089 19.2943 4.38038 19.3822 4.55989 19.3699L6.38718 19.2529C6.90006 19.2206 7.41106 19.3395 7.85639 19.5966L8.82675 20.1568L8.0921 21.4293C7.95695 21.6634 8.03704 21.9623 8.27058 22.0971L9.04754 22.5457C9.28107 22.6805 9.57998 22.6004 9.71513 22.3663L10.4498 21.0939L11.4196 21.6538C11.8649 21.9109 12.2246 22.2932 12.4526 22.7556L13.2642 24.3953C13.3433 24.5569 13.5051 24.6615 13.6852 24.6674C13.8652 24.6724 14.034 24.5782 14.1238 24.4227L15.6398 21.797C16.1849 20.8528 16.2245 19.6978 15.7477 18.7165L15.5008 18.2083ZM14.141 12.8277C13.3351 12.3624 13.0582 11.3308 13.5235 10.5248C13.9891 9.71835 15.0206 9.44291 15.8266 9.90822C16.6319 10.3732 16.9091 11.4042 16.4435 12.2107C15.9782 13.0167 14.9464 13.2927 14.141 12.8277Z" fill="white"/>
</g>
<defs>
<clipPath id="clip0_84_183">
<rect width="20" height="20" fill="white" transform="translate(10) rotate(30)"/>
</clipPath>
</defs>
</svg>
